<svg width="189" height="248" viewBox="0 0 189 248" fill="none" xmlns="http://www.w3.org/2000/svg">
<path d="M110.077 28.1503C107.651 29.0115 105.433 30.3163 103.45 31.8597M103.45 31.8597L109.112 32.3575M103.45 31.8597C102.558 32.5535 100.597 34.8853 99.8029 35.6569M103.45 31.8597L104.411 29.7053M99.8029 35.6569L106.149 34.944M99.8029 35.6569C98.8004 36.6311 98.7887 36.5562 97.9501 37.5874C96.8952 38.8846 96.1801 39.7038 95.402 40.9575M99.8029 35.6569L99.7112 32.6853M95.402 40.9575C94.6785 42.346 92.9231 45.7677 92.6469 46.7271M95.402 40.9575L103.576 39.9688M95.402 40.9575L95.8491 37.1775M114.553 41.7655C112.063 42.42 109.743 43.534 107.637 44.9056M107.637 44.9056L113.237 45.8768M107.637 44.9056C106.69 45.522 104.539 47.681 103.683 48.3832M107.637 44.9056L108.776 42.8395M103.683 48.3832L110.066 48.2054M103.683 48.3832C102.602 49.2698 102.597 49.1942 101.674 50.1513C100.514 51.3554 99.7326 52.1117 98.8517 53.2956M103.683 48.3832L103.842 45.4144M98.8517 53.2956C98.0139 54.6185 95.9768 57.8808 95.6208 58.8136M98.8517 53.2956L107.08 52.9966M98.8517 53.2956L99.6154 49.5666M117.336 58.3354C114.761 58.3518 112.236 58.8554 109.855 59.6616M109.855 59.6616L115.039 61.9916M109.855 59.6616C108.785 60.024 106.165 61.5818 105.161 62.0497M109.855 59.6616L111.473 57.9429M105.161 62.0497L111.388 63.4608M105.161 62.0497C103.893 62.6404 103.907 62.5658 102.775 63.2642C101.352 64.1427 100.407 64.6815 99.2592 65.6098M105.161 62.0497L106.053 59.2133M99.2592 65.6098C98.1186 66.6834 95.334 69.3382 94.7571 70.1535M99.2592 65.6098L107.304 67.361M99.2592 65.6098L100.926 62.187M75.0636 53.5136C77.5322 54.2452 79.8163 55.4308 81.8786 56.8671M81.8786 56.8671L76.2503 57.6639M81.8786 56.8671C82.8055 57.5128 84.8879 59.7375 85.7217 60.466M81.8786 56.8671L80.8041 54.7666M85.7217 60.466L79.3472 60.0899M85.7217 60.466C86.7745 61.3858 86.7822 61.3103 87.6743 62.2957C88.7966 63.5353 89.5542 64.3155 90.3977 65.5262M85.7217 60.466L85.6556 57.4937M90.3977 65.5262C91.1938 66.8745 93.1283 70.1985 93.4551 71.1419M90.3977 65.5262L82.1827 64.9715M90.3977 65.5262L89.7506 61.7752M76.1801 41.3012C78.4437 41.6655 80.5798 42.4641 82.5382 43.5172M82.5382 43.5172L77.5789 44.9231M82.5382 43.5172C83.4185 43.9905 85.4594 45.7565 86.2634 46.3164M82.5382 43.5172L81.4073 41.7416M86.2634 46.3164L80.5419 46.7487M86.2634 46.3164C87.2784 47.0232 87.2792 46.9538 88.1562 47.7397C89.2594 48.7282 89.9995 49.3442 90.8516 50.3405M86.2634 46.3164L85.9613 43.6273M90.8516 50.3405C91.6726 51.4673 93.6714 54.2487 94.0403 55.0651M90.8516 50.3405L83.4725 50.8341M90.8516 50.3405L89.9672 47.0154M44.9735 53.3274C46.9903 53.9284 48.7958 54.9306 50.3822 56.1565M50.3822 56.1565L45.4904 56.948M50.3822 56.1565C51.0953 56.7075 52.605 58.6246 53.2289 59.2498M50.3822 56.1565L49.7168 54.3318M53.2289 59.2498L47.8407 59.025M53.2289 59.2498C54.0165 60.0392 54.0321 59.973 54.675 60.8225C55.4838 61.8913 56.0365 62.5631 56.6112 63.6112M53.2289 59.2498L53.5267 56.6439M56.6112 63.6112C57.1291 64.7807 58.3817 67.6644 58.5478 68.4865M56.6112 63.6112L49.6757 63.26M56.6112 63.6112L56.5067 60.3318M71.5109 56.0622C69.6101 56.9647 67.9797 58.2314 66.6 59.6855M66.6 59.6855L71.5555 59.7193M66.6 59.6855C65.9799 60.3391 64.7821 62.4645 64.2615 63.1778M66.6 59.6855L66.9777 57.7805M64.2615 63.1778L69.5515 62.1312M64.2615 63.1778C63.6042 64.0784 63.5787 64.0153 63.0737 64.9532C62.4384 66.133 61.9953 66.8815 61.5882 68.0051M64.2615 63.1778L63.5674 60.6482M61.5882 68.0051C61.2558 69.24 60.4602 72.2813 60.4222 73.1192M61.5882 68.0051L68.3878 66.597M61.5882 68.0051L61.1884 64.7485M70.3808 70.5423C68.9614 72.0469 67.9155 73.7893 67.1637 75.6145M67.1637 75.6145L71.696 73.8814M67.1637 75.6145C66.8257 76.4349 66.4738 78.8111 66.2475 79.6509M67.1637 75.6145L66.8443 73.7324M66.2475 79.6509L70.7085 76.8076M66.2475 79.6509C65.9617 80.7111 65.9164 80.6623 65.7826 81.7025C65.6143 83.0111 65.4709 83.8555 65.4911 85.0313M66.2475 79.6509L64.7327 77.5772M65.4911 85.0313C65.6182 86.2825 65.9524 89.3559 66.2097 90.1381M65.4911 85.0313L71.2032 81.3189M65.4911 85.0313L63.9914 82.1858M76.2516 78.6578C75.2379 80.4601 74.6441 82.4032 74.3556 84.3557M74.3556 84.3557L78.335 81.5812M74.3556 84.3557C74.226 85.2333 74.4589 87.6241 74.4422 88.4935M74.3556 84.3557L73.5908 82.6062M74.4422 88.4935L78.084 84.6589M74.4422 88.4935C74.4212 89.5913 74.3654 89.5548 74.487 90.5966C74.64 91.907 74.705 92.761 75.0088 93.8972M74.4422 88.4935L72.471 86.8464M75.0088 93.8972C75.4346 95.0807 76.5018 97.9826 76.9406 98.6796M75.0088 93.8972L79.6546 88.9175M75.0088 93.8972L72.8657 91.4974M57.4232 109.068C58.5628 107.324 60.0171 105.846 61.6176 104.61M61.6176 104.61L60.9562 109.25M61.6176 104.61C62.337 104.054 64.5617 103.015 65.325 102.555M61.6176 104.61L59.7211 104.891M65.325 102.555L63.5713 107.467M65.325 102.555C66.2887 101.974 66.2312 101.947 67.2096 101.511C68.4405 100.961 69.2269 100.575 70.3714 100.237M65.325 102.555L62.974 101.808M70.3714 100.237C71.6131 99.9731 74.6679 99.3449 75.4841 99.3415M70.3714 100.237L68.0563 106.548M70.3714 100.237L67.2755 99.7379M49.0411 99.1794C50.5842 97.7777 52.3644 96.7135 54.2251 95.9203M54.2251 95.9203L52.4143 100.244M54.2251 95.9203C55.0615 95.5637 57.4768 95.1172 58.3315 94.8641M54.2251 95.9203L52.3189 95.7145M58.3315 94.8641L55.3949 99.1764M58.3315 94.8641C59.4106 94.5446 59.3616 94.5046 60.4186 94.3281C61.7484 94.1061 62.6069 93.9303 63.7998 93.8911M58.3315 94.8641L56.2447 93.55M63.7998 93.8911C65.068 93.9482 68.1828 94.109 68.9735 94.311M63.7998 93.8911L59.967 99.4164M63.7998 93.8911L60.9297 92.6292M43.2108 85.5558C45.1261 84.7304 47.1558 84.3012 49.1736 84.1543M49.1736 84.1543L46.0549 87.657M49.1736 84.1543C50.0806 84.0883 52.5101 84.4493 53.4008 84.4871M49.1736 84.1543L47.4376 83.3416M53.4008 84.4871L49.2213 87.6134M53.4008 84.4871C54.5253 84.5348 54.492 84.4811 55.5492 84.6569C56.8791 84.8781 57.7483 84.9903 58.8892 85.3401M53.4008 84.4871L51.8545 82.5674M58.8892 85.3401C60.0701 85.8053 62.9638 86.9675 63.646 87.415M58.8892 85.3401L53.4676 89.323M58.8892 85.3401L56.585 83.2158M41.2964 70.174C43.3764 70.0157 45.4355 70.2691 47.3914 70.7857M47.3914 70.7857L43.3015 73.0848M47.3914 70.7857C48.2706 71.0179 50.4505 72.1484 51.2804 72.4735M47.3914 70.7857L46.0145 69.4533M51.2804 72.4735L46.3099 74.0722M51.2804 72.4735C52.3283 72.8839 52.3142 72.8223 53.2566 73.332C54.4422 73.9731 55.2276 74.3615 56.1925 75.0629M51.2804 72.4735L50.4434 70.1559M56.1925 75.0629C57.1577 75.8864 59.5155 77.9254 60.0149 78.5701M56.1925 75.0629L49.7685 77.0681M56.1925 75.0629L54.7055 72.3056M116.626 48.3227C118.483 49.244 120.087 50.5141 121.453 51.9613M121.453 51.9613L116.668 51.8845M121.453 51.9613C122.067 52.6117 123.273 54.7088 123.792 55.4153M121.453 51.9613L121.044 50.0971M123.792 55.4153L118.659 54.2787M123.792 55.4153C124.447 56.3072 124.471 56.2463 124.98 57.1712C125.621 58.3347 126.066 59.0737 126.485 60.1773M123.792 55.4153L124.404 52.9662M126.485 60.1773C126.835 61.3877 127.673 64.3682 127.729 65.1853M126.485 60.1773L119.886 58.6551M126.485 60.1773L126.796 57.0135M145.209 45.407C143.027 46.1545 141 47.2863 139.165 48.6249M139.165 48.6249L144.102 49.0539M139.165 48.6249C138.34 49.2266 136.475 51.2484 135.73 51.9175M139.165 48.6249L140.141 46.7572M135.73 51.9175L141.342 51.2969M135.73 51.9175C134.791 52.7623 134.785 52.6974 133.985 53.5915C132.98 54.7162 132.302 55.4265 131.541 56.5135M135.73 51.9175L135.834 49.342M131.541 56.5135C130.821 57.7172 129.069 60.6836 128.767 61.5153M131.541 56.5135L138.774 55.6531M131.541 56.5135L132.167 53.2371M146.691 60.2373C144.403 60.5304 142.19 61.2313 140.122 62.1732M140.122 62.1732L144.872 63.5867M140.122 62.1732C139.192 62.5966 136.958 64.2017 136.094 64.7074M140.122 62.1732L141.455 60.5403M136.094 64.7074L141.715 65.2285M136.094 64.7074C135.003 65.3457 135.01 65.281 134.047 65.9959C132.835 66.8953 132.028 67.4546 131.064 68.3663M136.094 64.7074L136.714 62.2054M131.064 68.3663C130.115 69.4004 127.801 71.9536 127.338 72.7075M131.064 68.3663L138.322 68.9788M131.064 68.3663L132.338 65.2831M146.42 76.0757C144.171 75.563 141.851 75.4586 139.585 75.6307M139.585 75.6307L143.555 78.5931M139.585 75.6307C138.566 75.708 135.915 76.4452 134.929 76.6223M139.585 75.6307L141.401 74.5571M134.929 76.6223L140.026 79.0473M134.929 76.6223C133.685 76.8459 133.714 76.7877 132.563 77.127C131.115 77.5539 130.164 77.8008 128.944 78.3247M134.929 76.6223L136.376 74.4876M128.944 78.3247C127.697 78.9687 124.643 80.5684 123.948 81.1165M128.944 78.3247L135.545 81.3989M128.944 78.3247L131.205 75.8693M141.792 92.1465C140.052 90.6341 138.056 89.4482 135.977 88.5313M135.977 88.5313L138.076 93.0149M135.977 88.5313C135.043 88.1191 132.357 87.5185 131.404 87.2098M135.977 88.5313L138.085 88.4411M131.404 87.2098L134.751 91.751M131.404 87.2098C130.202 86.8201 130.255 86.7827 129.08 86.539C127.601 86.2323 126.646 86.0015 125.324 85.8883M131.404 87.2098L133.689 86.0102M125.324 85.8883C123.919 85.8677 120.471 85.8378 119.599 85.9931M125.324 85.8883L129.689 91.711M125.324 85.8883L128.477 84.7898M133.442 99.5587C131.702 98.0462 129.707 96.8603 127.628 95.9434M127.628 95.9434L129.727 100.427M127.628 95.9434C126.693 95.5313 124.007 94.9307 123.054 94.622M127.628 95.9434L129.735 95.8532M123.054 94.622L126.401 99.1631M123.054 94.622C121.852 94.2322 121.905 94.1949 120.73 93.9511C119.252 93.6445 118.296 93.4137 116.974 93.3004M123.054 94.622L125.339 93.4223M116.974 93.3004C115.57 93.2798 112.121 93.2499 111.249 93.4053M116.974 93.3004L121.339 99.1232M116.974 93.3004L120.127 92.2019M112.082 69.9769C112.948 72.0476 113.422 74.2501 113.614 76.4447M113.614 76.4447L110.051 73.1119M113.614 76.4447C113.7 77.4312 113.395 80.0834 113.377 81.054M113.614 76.4447L114.385 74.5397M113.377 81.054L110.166 76.5592M113.377 81.054C113.355 82.2794 113.408 82.2421 113.256 83.3965C113.066 84.8488 112.974 85.7972 112.651 87.046M113.377 81.054L115.256 79.3354M112.651 87.046C112.213 88.3403 111.12 91.5124 110.689 92.2634M112.651 87.046L108.558 81.2141M112.651 87.046L114.717 84.4984M119.833 63.5168C120.765 65.2657 121.374 67.1654 121.743 69.083M121.743 69.083L118.398 66.4594M121.743 69.083C121.909 69.9449 121.898 72.3097 121.974 73.1668M121.743 69.083L122.221 67.3357M121.974 73.1668L118.819 69.488M121.974 73.1668C122.069 74.249 122.111 74.2114 122.09 75.2424C122.064 76.5393 122.074 77.3835 121.916 78.5127M121.974 73.1668L123.412 71.4861M121.916 78.5127C121.665 79.6923 121.031 82.5849 120.735 83.2848M121.916 78.5127L117.886 73.7331M121.916 78.5127L123.436 76.0849M64.2977 27.6637C66.567 27.3367 68.8444 27.4621 71.0283 27.8834M71.0283 27.8834L66.7152 30.7036M71.0283 27.8834C72.01 28.0728 74.4856 29.15 75.4203 29.4447M71.0283 27.8834L69.4182 26.5259M75.4203 29.4447L70.0888 31.5627M75.4203 29.4447C76.6003 29.8167 76.5803 29.7503 77.6522 30.2389C79.0006 30.8536 79.8911 31.2209 81.002 31.9178M75.4203 29.4447L74.3283 26.9683M81.002 31.9178C82.1224 32.7485 84.8614 34.8073 85.4574 35.4766M81.002 31.9178L74.1069 34.5884M81.002 31.9178L79.1642 29.0078M107.195 145.981C110.442 89.9266 62.6631 116.332 59.4159 69.08M101.185 126.124C58.3792 80.8501 121.467 82.7031 80.6243 27.1121M78.4552 1.39851C77.4162 3.93492 76.8944 6.61479 76.7395 9.2739M76.7395 9.2739L81.2385 5.10457M76.7395 9.2739C76.6699 10.4691 77.1828 13.6611 77.2478 14.833M76.7395 9.2739L75.6516 7.00328M77.2478 14.833L81.2385 9.27389M77.2478 14.833C77.33 16.3125 77.2595 16.2696 77.5071 17.6582C77.8186 19.405 77.98 20.5472 78.4552 22.0429M77.2478 14.833L74.7239 12.8321M78.4552 22.0429C79.0814 23.5891 80.6444 27.3775 81.2385 28.2675M78.4552 22.0429L83.5375 14.833M78.4552 22.0429L75.6516 19.048M95.2968 14.8885C93.5784 16.486 92.2219 18.3807 91.1654 20.391M91.1654 20.391L96.2156 18.7675M91.1654 20.391C90.6905 21.2946 89.9794 23.9588 89.6201 24.8926M91.1654 20.391L91.0948 18.2362M89.6201 24.8926L94.7526 22.0068M89.6201 24.8926C89.1664 26.0716 89.1253 26.013 88.8355 27.1808C88.4709 28.6498 88.1988 29.5952 88.0529 30.9279M89.6201 24.8926L88.3098 22.4316M88.0529 30.9279C88.0096 32.3541 87.9265 35.8588 88.0879 36.7636M88.0529 30.9279L94.6351 27.1516M88.0529 30.9279L86.8684 27.5941M80.4486 139.032C77.2015 82.9777 124.981 109.383 128.228 62.1311M92.5001 47.9523C108.172 46.6141 110.362 27.8772 110.362 27.8772C110.362 27.8772 89.2957 31.6795 92.5001 47.9523ZM95.3714 60.0221C111.101 60.0041 114.859 41.5173 114.859 41.5173C114.859 41.5173 93.5479 43.5379 95.3714 60.0221ZM94.215 71.2623C109.456 75.1463 117.694 58.171 117.694 58.171C117.694 58.171 96.5482 54.8423 94.215 71.2623ZM93.6667 72.3576C77.9457 71.8507 74.7649 53.256 74.7649 53.256C74.7649 53.256 96.0031 55.9381 93.6667 72.3576ZM94.3286 56.1425C80.2527 57.5904 75.8923 41.1037 75.8923 41.1037C75.8923 41.1037 95.0715 40.9601 94.3286 56.1425ZM58.5833 69.5493C45.2449 69.3636 44.7496 53.1063 44.7496 53.1063C44.7496 53.1063 62.5311 55.109 58.5833 69.5493ZM60.5502 74.1748C73.7027 71.9507 71.6983 55.8096 71.6983 55.8096C71.6983 55.8096 54.4339 60.509 60.5502 74.1748ZM66.6944 91.061C77.9174 84.3386 70.4637 70.2438 70.4637 70.2438C70.4637 70.2438 56.3523 80.7008 66.6944 91.061ZM77.634 99.4585C86.9002 90.2292 76.2598 78.3482 76.2598 78.3482C76.2598 78.3482 65.0935 91.8979 77.634 99.4585ZM76.4879 99.5017C72.4933 111.729 57.1524 109.234 57.1524 109.234C57.1524 109.234 64.1185 93.2524 76.4879 99.5017ZM69.9044 94.7187C62.9538 105.546 48.7373 99.2716 48.7373 99.2716C48.7373 99.2716 59.5109 85.5585 69.9044 94.7187ZM64.394 88.1024C54.2994 96.0893 42.8934 85.5445 42.8934 85.5445C42.8934 85.5445 57.542 76.0681 64.394 88.1024ZM60.4982 79.4632C48.3513 83.7367 41 70.0602 41 70.0602C41 70.0602 57.9385 65.8575 60.4982 79.4632ZM127.63 66.2109C114.877 63.7532 116.439 48.0724 116.439 48.0724C116.439 48.0724 133.221 53.0327 127.63 66.2109ZM128.563 62.5772C142.396 61.4108 145.475 45.1703 145.475 45.1703C145.475 45.1703 126.758 48.4747 128.563 62.5772ZM126.923 73.7065C140.708 75.347 147 60.059 147 60.059C147 60.059 128 59.5299 126.923 73.7065ZM123.214 81.9115C135.586 88.1982 146.771 76.0147 146.771 76.0147C146.771 76.0147 129.119 68.9751 123.214 81.9115ZM118.576 86.3478C126.51 97.7238 142.13 92.2585 142.13 92.2585C142.13 92.2585 129.898 77.729 118.576 86.3478ZM110.226 93.7599C118.16 105.136 133.781 99.6707 133.781 99.6707C133.781 99.6707 121.549 85.1412 110.226 93.7599ZM110.021 93.0903C101.83 82.2422 112.086 69.6311 112.086 69.6311C112.086 69.6311 121.864 85.4114 110.021 93.0903ZM120.243 84.0727C112.255 75.2328 119.805 63.2116 119.805 63.2116C119.805 63.2116 129.607 76.2591 120.243 84.0727ZM86.0546 36.4189C73.053 41.9965 63.9641 27.561 63.9641 27.561C63.9641 27.561 82.2261 21.7071 86.0546 36.4189ZM82.1459 29.2397C92.3512 15.8052 78.4348 0.980911 78.4348 0.980911C78.4348 0.980911 66.3741 20.4378 82.1459 29.2397ZM88.4703 37.8448C101.321 31.0723 95.4271 14.5568 95.4271 14.5568C95.4271 14.5568 78.9834 25.3419 88.4703 37.8448Z" stroke="url(#paint0_linear_1_288)" stroke-width="1.2"/>
<path d="M8.42578 194.674C9.85156 196.217 11.9121 196.989 14.6074 196.989V198.981C11.3457 198.981 8.78711 197.985 6.93164 195.993C6.3457 195.348 5.83789 194.616 5.4082 193.795C4.99805 192.956 4.70508 192.174 4.5293 191.452C4.37305 190.729 4.24609 190.016 4.14844 189.313C4.05078 188.59 4.01172 188.024 4.03125 187.614C4.07031 187.204 4.08008 186.901 4.06055 186.706V186.618V160.573H6.05273V169.772H14.2559V171.735H6.05273V186.676V186.735C5.99414 186.832 5.98438 187.204 6.02344 187.848C6.08203 188.473 6.15039 189.147 6.22852 189.87C6.32617 190.592 6.56055 191.413 6.93164 192.331C7.32227 193.248 7.82031 194.03 8.42578 194.674ZM31.8047 198.981H29.7539L18.0059 169.772H20.1152L30.8379 195.934L42.5566 169.772H44.6367L31.8047 198.981ZM80.0566 169.772V198.981H78.0938V191.95C76.7266 194.391 74.832 196.344 72.4102 197.809C69.9883 199.274 67.3418 200.006 64.4707 200.006C62.3613 200.006 60.3398 199.596 58.4062 198.776C56.4922 197.936 54.832 196.823 53.4258 195.436C52.0391 194.03 50.9258 192.37 50.0859 190.456C49.2656 188.522 48.8555 186.5 48.8555 184.391C48.8555 181.579 49.5488 178.981 50.9355 176.598C52.3418 174.196 54.2461 172.301 56.6484 170.915C59.0508 169.508 61.6582 168.805 64.4707 168.805C67.3418 168.805 69.9883 169.528 72.4102 170.973C74.832 172.418 76.7266 174.352 78.0938 176.774V169.772H80.0566ZM54.832 194.03C57.5078 196.686 60.7207 198.014 64.4707 198.014C68.2207 198.014 71.4238 196.686 74.0801 194.03C76.7559 191.354 78.0938 188.141 78.0938 184.391C78.0938 180.641 76.7559 177.438 74.0801 174.782C71.4238 172.106 68.2207 170.768 64.4707 170.768C60.7207 170.768 57.5078 172.106 54.832 174.782C52.1758 177.438 50.8477 180.641 50.8477 184.391C50.8477 188.141 52.1758 191.354 54.832 194.03ZM102.791 198.014C104.959 198.014 106.971 197.545 108.826 196.608C110.701 195.651 112.264 194.342 113.514 192.682L114.305 194.85C112.84 196.471 111.111 197.741 109.119 198.659C107.146 199.557 105.037 200.006 102.791 200.006C100.682 200.006 98.6602 199.596 96.7266 198.776C94.8125 197.936 93.1523 196.823 91.7461 195.436C90.3594 194.03 89.2461 192.37 88.4062 190.456C87.5859 188.522 87.1758 186.5 87.1758 184.391C87.1758 181.579 87.8691 178.981 89.2559 176.598C90.6621 174.196 92.5664 172.301 94.9688 170.915C97.3711 169.508 99.9785 168.805 102.791 168.805C105.018 168.805 107.127 169.254 109.119 170.153C111.111 171.051 112.84 172.301 114.305 173.903L113.455 176.012C112.166 174.391 110.594 173.112 108.738 172.174C106.883 171.237 104.9 170.768 102.791 170.768C99.041 170.768 95.8281 172.106 93.1523 174.782C90.4961 177.438 89.168 180.641 89.168 184.391C89.168 188.141 90.4961 191.354 93.1523 194.03C95.8281 196.686 99.041 198.014 102.791 198.014ZM134.021 168.805C137.83 168.805 140.857 169.997 143.104 172.379C145.369 174.762 146.502 177.946 146.502 181.93V198.981H144.539V181.93C144.539 180.348 144.334 178.913 143.924 177.623C143.514 176.334 142.967 175.27 142.283 174.43C141.619 173.59 140.828 172.897 139.91 172.35C138.992 171.784 138.045 171.383 137.068 171.149C136.092 170.895 135.076 170.768 134.021 170.768C132.967 170.768 131.951 170.885 130.975 171.12C130.018 171.354 129.08 171.754 128.162 172.321C127.264 172.868 126.473 173.561 125.789 174.401C125.125 175.221 124.588 176.276 124.178 177.565C123.768 178.854 123.553 180.29 123.533 181.872V198.981H121.541V155.973H123.533V174.254C125.74 170.622 129.236 168.805 134.021 168.805ZM184.295 169.772V198.981H182.332V191.95C180.965 194.391 179.07 196.344 176.648 197.809C174.227 199.274 171.58 200.006 168.709 200.006C166.6 200.006 164.578 199.596 162.645 198.776C160.73 197.936 159.07 196.823 157.664 195.436C156.277 194.03 155.164 192.37 154.324 190.456C153.504 188.522 153.094 186.5 153.094 184.391C153.094 181.579 153.787 178.981 155.174 176.598C156.58 174.196 158.484 172.301 160.887 170.915C163.289 169.508 165.896 168.805 168.709 168.805C171.58 168.805 174.227 169.528 176.648 170.973C179.07 172.418 180.965 174.352 182.332 176.774V169.772H184.295ZM159.07 194.03C161.746 196.686 164.959 198.014 168.709 198.014C172.459 198.014 175.662 196.686 178.318 194.03C180.994 191.354 182.332 188.141 182.332 184.391C182.332 180.641 180.994 177.438 178.318 174.782C175.662 172.106 172.459 170.768 168.709 170.768C164.959 170.768 161.746 172.106 159.07 174.782C156.414 177.438 155.086 180.641 155.086 184.391C155.086 188.141 156.414 191.354 159.07 194.03ZM55.8086 240.981H54.5V228.227H35.9648V240.981H34.6562V212.172H35.9648V226.899H54.5V212.172H55.8086V240.981ZM81.3164 230.297L81.3555 231.86H62.2734C62.4167 234.23 63.3411 236.235 65.0469 237.875C66.7526 239.516 68.7839 240.336 71.1406 240.336C72.6771 240.336 74.0964 239.965 75.3984 239.223C76.7005 238.481 77.7617 237.478 78.582 236.215H80.1055C79.2331 237.856 77.9961 239.178 76.3945 240.18C74.793 241.17 73.0417 241.665 71.1406 241.665C69.7604 241.665 68.4388 241.391 67.1758 240.844C65.9128 240.284 64.8255 239.542 63.9141 238.618C63.0156 237.68 62.293 236.573 61.7461 235.297C61.2122 234.008 60.9453 232.661 60.9453 231.254C60.9453 229.379 61.3945 227.648 62.293 226.059C63.2044 224.457 64.4414 223.194 66.0039 222.27C67.5794 221.332 69.2917 220.864 71.1406 220.864C73.7708 220.864 76.0495 221.775 77.9766 223.598C79.9167 225.408 81.0299 227.641 81.3164 230.297ZM71.1406 222.172C68.8099 222.172 66.7917 222.98 65.0859 224.594C63.3932 226.196 62.4557 228.175 62.2734 230.532H80.0273C79.8451 228.175 78.901 226.196 77.1953 224.594C75.5026 222.98 73.4844 222.172 71.1406 222.172ZM95.0859 221.586V222.895C94.7214 222.843 94.4154 222.817 94.168 222.817C92.9049 222.817 91.7331 223.227 90.6523 224.047C89.5846 224.855 88.7383 225.955 88.1133 227.348C87.4883 228.741 87.1758 230.258 87.1758 231.899V240.981H85.8477V221.508H87.1758V226.293C87.931 224.835 88.9206 223.676 90.1445 222.817C91.3815 221.944 92.7227 221.508 94.168 221.508C94.4154 221.508 94.7214 221.534 95.0859 221.586ZM98.7773 240.981V212.133H100.105V226.176C101.004 224.562 102.26 223.273 103.875 222.309C105.49 221.345 107.26 220.864 109.188 220.864C111.062 220.864 112.794 221.332 114.383 222.27C115.984 223.194 117.247 224.457 118.172 226.059C119.109 227.648 119.578 229.379 119.578 231.254C119.578 233.129 119.109 234.868 118.172 236.469C117.247 238.071 115.984 239.34 114.383 240.278C112.794 241.202 111.062 241.665 109.188 241.665C107.26 241.665 105.49 241.176 103.875 240.2C102.26 239.223 101.004 237.921 100.105 236.293V240.981H98.7773ZM115.594 224.848C113.823 223.064 111.688 222.172 109.188 222.172C106.688 222.172 104.546 223.064 102.762 224.848C100.991 226.619 100.105 228.754 100.105 231.254C100.105 233.754 100.991 235.896 102.762 237.68C104.546 239.451 106.688 240.336 109.188 240.336C111.688 240.336 113.823 239.451 115.594 237.68C117.378 235.896 118.27 233.754 118.27 231.254C118.27 228.754 117.378 226.619 115.594 224.848ZM144.129 221.508V240.981H142.82V236.293C141.909 237.921 140.646 239.223 139.031 240.2C137.417 241.176 135.652 241.665 133.738 241.665C132.332 241.665 130.984 241.391 129.695 240.844C128.419 240.284 127.312 239.542 126.375 238.618C125.451 237.68 124.708 236.573 124.148 235.297C123.602 234.008 123.328 232.661 123.328 231.254C123.328 229.379 123.79 227.648 124.715 226.059C125.652 224.457 126.922 223.194 128.523 222.27C130.125 221.332 131.863 220.864 133.738 220.864C135.652 220.864 137.417 221.345 139.031 222.309C140.646 223.273 141.909 224.562 142.82 226.176V221.508H144.129ZM127.312 237.68C129.096 239.451 131.238 240.336 133.738 240.336C136.238 240.336 138.374 239.451 140.145 237.68C141.928 235.896 142.82 233.754 142.82 231.254C142.82 228.754 141.928 226.619 140.145 224.848C138.374 223.064 136.238 222.172 133.738 222.172C131.238 222.172 129.096 223.064 127.312 224.848C125.542 226.619 124.656 228.754 124.656 231.254C124.656 233.754 125.542 235.896 127.312 237.68ZM150.887 212.133V232.778C150.887 235.174 151.421 236.951 152.488 238.11C153.439 239.138 154.806 239.653 156.59 239.653V240.981C154.415 240.981 152.71 240.317 151.473 238.989C151.082 238.559 150.743 238.071 150.457 237.524C150.184 236.964 149.988 236.443 149.871 235.961C149.767 235.48 149.682 235.004 149.617 234.536C149.552 234.054 149.526 233.676 149.539 233.403C149.565 233.129 149.572 232.928 149.559 232.797V232.739V212.133H150.887Z" fill="black"/>
<defs>
<linearGradient id="paint0_linear_1_288" x1="41.3247" y1="77.8819" x2="147.089" y2="76.4884" gradientUnits="userSpaceOnUse">
<stop stop-color="#1E6000"/>
<stop offset="1" stop-color="#319200"/>
</linearGradient>
</defs>
</svg>
